# xmcd
#
# Track frame offsets:
#	150
#	19115
#	31075
#	46040
#	73423
#	85345
#	103198
#	136610
#	153595
#	165313
#	197143
#	208065
#	233604
#	249513
#	267998
#	299485
#	313798
#	327055
#
# Disc length: 4378 seconds
#
# Revision: 0
# Processed by: cddbd v1.5.1PL0 Copyright (c) Steve Scherf et al.
# Submitted via: dBpowerAMP V4.0
#
DISCID=f9111812
DTITLE=Livin' Blues - Complete Collection disc 2
DYEAR=2003
DGENRE=Blues
TTITLE0=L.B. Boogie
TTITLE1=Sunrise
TTITLE2=Keep on
TTITLE3=Hitch-hikin'
TTITLE4=Bamboozle song
TTITLE5=Overture
TTITLE6=Black night
TTITLE7=Big city man
TTITLE8=Shady girl, shady girl
TTITLE9=Fool on you
TTITLE10=Tongue 'n' groove
TTITLE11=You're a stranger
TTITLE12=Sweet Suzanne
TTITLE13=Ain't no use crying
TTITLE14=Diving duck blues
TTITLE15=Eye to eye
TTITLE16=Please don't leave me
TTITLE17=Stealing the blues
EXTD=
EXTT0=
EXTT1=
EXTT2=
EXTT3=
EXTT4=
EXTT5=
EXTT6=
EXTT7=
EXTT8=
EXTT9=
EXTT10=
EXTT11=
EXTT12=
EXTT13=
EXTT14=
EXTT15=
EXTT16=
EXTT17=
PLAYORDER=
